<svg xmlns="http://www.w3.org/2000/svg" viewBox="0 0 1200 600" width="1200" height="600">
  <rect width="1200" height="600" fill="#0a0c13"/>
  <!-- Grid lines -->
  <line x1="0" y1="100" x2="1200" y2="100" stroke="#1e2130" stroke-width="1"/>
  <line x1="0" y1="200" x2="1200" y2="200" stroke="#1e2130" stroke-width="1"/>
  <line x1="0" y1="300" x2="1200" y2="300" stroke="#1e2130" stroke-width="1"/>
  <line x1="0" y1="400" x2="1200" y2="400" stroke="#1e2130" stroke-width="1"/>
  <line x1="0" y1="500" x2="1200" y2="500" stroke="#1e2130" stroke-width="1"/>
  <line x1="200" y1="0" x2="200" y2="600" stroke="#1e2130" stroke-width="1"/>
  <line x1="400" y1="0" x2="400" y2="600" stroke="#1e2130" stroke-width="1"/>
  <line x1="600" y1="0" x2="600" y2="600" stroke="#1e2130" stroke-width="1"/>
  <line x1="800" y1="0" x2="800" y2="600" stroke="#1e2130" stroke-width="1"/>
  <line x1="1000" y1="0" x2="1000" y2="600" stroke="#1e2130" stroke-width="1"/>
  <!-- Candlestick wicks -->
  <line x1="30" y1="420" x2="30" y2="470" stroke="#2d3148" stroke-width="1.5"/>
  <line x1="80" y1="390" x2="80" y2="460" stroke="#2d3148" stroke-width="1.5"/>
  <line x1="130" y1="430" x2="130" y2="490" stroke="#2d3148" stroke-width="1.5"/>
  <line x1="180" y1="400" x2="180" y2="445" stroke="#2d3148" stroke-width="1.5"/>
  <line x1="230" y1="390" x2="230" y2="430" stroke="#2d3148" stroke-width="1.5"/>
  <line x1="280" y1="370" x2="280" y2="420" stroke="#2d3148" stroke-width="1.5"/>
  <line x1="330" y1="380" x2="330" y2="410" stroke="#2d3148" stroke-width="1.5"/>
  <line x1="380" y1="350" x2="380" y2="395" stroke="#2d3148" stroke-width="1.5"/>
  <line x1="430" y1="340" x2="430" y2="380" stroke="#2d3148" stroke-width="1.5"/>
  <line x1="480" y1="320" x2="480" y2="365" stroke="#2d3148" stroke-width="1.5"/>
  <line x1="530" y1="310" x2="530" y2="350" stroke="#2d3148" stroke-width="1.5"/>
  <line x1="580" y1="290" x2="580" y2="340" stroke="#2d3148" stroke-width="1.5"/>
  <line x1="630" y1="295" x2="630" y2="325" stroke="#2d3148" stroke-width="1.5"/>
  <line x1="680" y1="270" x2="680" y2="310" stroke="#2d3148" stroke-width="1.5"/>
  <line x1="730" y1="255" x2="730" y2="295" stroke="#2d3148" stroke-width="1.5"/>
  <line x1="780" y1="240" x2="780" y2="280" stroke="#2d3148" stroke-width="1.5"/>
  <line x1="830" y1="225" x2="830" y2="265" stroke="#2d3148" stroke-width="1.5"/>
  <line x1="880" y1="215" x2="880" y2="250" stroke="#2d3148" stroke-width="1.5"/>
  <line x1="930" y1="200" x2="930" y2="235" stroke="#2d3148" stroke-width="1.5"/>
  <line x1="980" y1="185" x2="980" y2="225" stroke="#2d3148" stroke-width="1.5"/>
  <!-- Candle bodies (mix buy/sell) -->
  <rect x="18" y="430" width="24" height="28" fill="#10d48e" opacity="0.8" rx="1"/>
  <rect x="68" y="405" width="24" height="35" fill="#f04f5e" opacity="0.8" rx="1"/>
  <rect x="118" y="440" width="24" height="32" fill="#10d48e" opacity="0.8" rx="1"/>
  <rect x="168" y="412" width="24" height="20" fill="#10d48e" opacity="0.8" rx="1"/>
  <rect x="218" y="393" width="24" height="25" fill="#10d48e" opacity="0.8" rx="1"/>
  <rect x="268" y="378" width="24" height="28" fill="#10d48e" opacity="0.8" rx="1"/>
  <rect x="318" y="382" width="24" height="18" fill="#f04f5e" opacity="0.8" rx="1"/>
  <rect x="368" y="358" width="24" height="22" fill="#10d48e" opacity="0.8" rx="1"/>
  <rect x="418" y="345" width="24" height="20" fill="#10d48e" opacity="0.8" rx="1"/>
  <rect x="468" y="328" width="24" height="24" fill="#10d48e" opacity="0.8" rx="1"/>
  <rect x="518" y="315" width="24" height="20" fill="#10d48e" opacity="0.8" rx="1"/>
  <rect x="568" y="300" width="24" height="22" fill="#f04f5e" opacity="0.8" rx="1"/>
  <rect x="618" y="298" width="24" height="16" fill="#10d48e" opacity="0.8" rx="1"/>
  <rect x="668" y="278" width="24" height="20" fill="#10d48e" opacity="0.8" rx="1"/>
  <rect x="718" y="262" width="24" height="18" fill="#10d48e" opacity="0.8" rx="1"/>
  <rect x="768" y="248" width="24" height="20" fill="#10d48e" opacity="0.8" rx="1"/>
  <rect x="818" y="232" width="24" height="18" fill="#f04f5e" opacity="0.8" rx="1"/>
  <rect x="868" y="220" width="24" height="16" fill="#10d48e" opacity="0.8" rx="1"/>
  <rect x="918" y="205" width="24" height="18" fill="#10d48e" opacity="0.8" rx="1"/>
  <rect x="968" y="192" width="24" height="16" fill="#10d48e" opacity="0.8" rx="1"/>
  <!-- Key resistance line -->
  <line x1="0" y1="360" x2="1200" y2="360" stroke="#10d48e" stroke-width="1" stroke-dasharray="6,4" opacity="0.5"/>
  <!-- Price line overlay -->
  <polyline points="30,444 80,422 130,456 180,422 230,406 280,392 330,391 380,369 430,355 480,340 530,325 580,311 630,306 680,288 730,271 780,258 830,241 880,228 930,214 980,200" fill="none" stroke="#10d48e" stroke-width="2" stroke-linejoin="round" opacity="0.6"/>
  <!-- Labels -->
  <text x="16" y="22" fill="#4a5568" font-family="monospace" font-size="11">EUR/USD  H4</text>
  <text x="1050" y="358" fill="#10d48e" font-family="monospace" font-size="10" opacity="0.7">1.0840 resistance</text>
  <text x="960" y="192" fill="#10d48e" font-family="monospace" font-size="11">1.0930</text>
  <!-- Volume bars -->
  <rect x="18" y="545" width="24" height="35" fill="#10d48e" opacity="0.2" rx="1"/>
  <rect x="68" y="560" width="24" height="20" fill="#f04f5e" opacity="0.2" rx="1"/>
  <rect x="118" y="548" width="24" height="32" fill="#10d48e" opacity="0.2" rx="1"/>
  <rect x="168" y="555" width="24" height="25" fill="#10d48e" opacity="0.2" rx="1"/>
  <rect x="218" y="550" width="24" height="30" fill="#10d48e" opacity="0.2" rx="1"/>
  <rect x="268" y="558" width="24" height="22" fill="#10d48e" opacity="0.2" rx="1"/>
  <rect x="318" y="562" width="24" height="18" fill="#f04f5e" opacity="0.2" rx="1"/>
  <rect x="368" y="552" width="24" height="28" fill="#10d48e" opacity="0.2" rx="1"/>
  <rect x="418" y="557" width="24" height="23" fill="#10d48e" opacity="0.2" rx="1"/>
  <rect x="468" y="553" width="24" height="27" fill="#10d48e" opacity="0.2" rx="1"/>
</svg>
